# xmcd CD database file
#
# Track frame offsets:
#	150
#	26787
#	40720
#	71277
#	94980
#	105962
#	125567
#	141530
#	159250
#	168195
#
# Disc length: 2600 seconds
#
# Revision: 1
# Processed by: cddbd v1.5.2PL0 Copyright (c) Steve Scherf et al.
# Submitted via: CDex 1.70beta2
#
DISCID=7d0a260a
DTITLE=Vários - Música Anti-Stress
DYEAR=1998
DGENRE=New Age
TTITLE0=Flor do Ar - Andrey Cechelero
TTITLE1=Becoming More Peaceful - Nawang Khechog
TTITLE2=O Último dia de Cada Ano - Corciolli
TTITLE3=Lago - Ed Ribeiro Lima and Cia
TTITLE4=High Tide - Luz da Ásia
TTITLE5=Ruby's Lullaby -  93-D
TTITLE6=Danse Feerique - Peter Ratzenbeck
TTITLE7=Luce -  Alpha Phoenix
TTITLE8=Fluindo - Danilo Tomic
TTITLE9=Timeless - Günter Wehinger
EXTD=YEAR: 1998
EXTT0=
EXTT1=
EXTT2=
EXTT3=
EXTT4=
EXTT5=
EXTT6=
EXTT7=
EXTT8=
EXTT9=
PLAYORDER=
